<svg width="300" height="201" viewBox="0 0 300 201" fill="none" xmlns="http://www.w3.org/2000/svg">
<path d="M33.5 0C60.1543 3.17849e-07 85.717 10.5881 104.564 29.4355C123.412 48.2829 134 73.8458 134 100.5C134 127.154 123.412 152.717 104.564 171.564C85.7171 190.412 60.1542 201 33.5 201V172.996C53.4758 172.872 72.6054 165.303 86.7402 151.912C100.993 138.409 109 120.096 109 101C109 81.9044 100.993 63.5905 86.7402 50.0879C72.6054 36.697 53.4758 29.1273 33.5 29.0029V0Z" fill="#00FFA3"/>
<path d="M104.887 89C105.622 92.9368 106 96.9508 106 101C106 105.393 105.555 109.744 104.691 114H0V89H104.887Z" fill="url(#paint0_linear_1_34)"/>
<path d="M266.5 0C239.846 3.17849e-07 214.283 10.5881 195.436 29.4355C176.588 48.2829 166 73.8458 166 100.5C166 127.154 176.588 152.717 195.436 171.564C214.283 190.412 239.846 201 266.5 201V172.996C246.524 172.872 227.395 165.303 213.26 151.912C199.007 138.409 191 120.096 191 101C191 81.9044 199.007 63.5905 213.26 50.0879C227.395 36.697 246.524 29.1273 266.5 29.0029V0Z" fill="#00FFA3"/>
<path d="M300 114H196.33C195.452 109.745 195 105.393 195 101C195 96.9504 195.384 92.9359 196.131 89H300V114Z" fill="url(#paint1_linear_1_34)"/>
<rect x="137" width="25" height="201" fill="#00FFA3"/>
<defs>
<linearGradient id="paint0_linear_1_34" x1="0" y1="101.5" x2="106" y2="101.5" gradientUnits="userSpaceOnUse">
<stop offset="0.5" stop-color="#00FFA3"/>
<stop offset="1" stop-color="#00C47D"/>
</linearGradient>
<linearGradient id="paint1_linear_1_34" x1="195" y1="101.5" x2="300" y2="101.5" gradientUnits="userSpaceOnUse">
<stop stop-color="#00C47D"/>
<stop offset="0.5" stop-color="#00FFA3"/>
</linearGradient>
</defs>
</svg>
