<svg width="319" height="200" viewBox="0 0 319 200" fill="none" xmlns="http://www.w3.org/2000/svg">
<path d="M0 0C26.5216 3.16267e-07 51.9573 10.5355 70.7109 29.2891C89.4645 48.0427 100 73.4784 100 100C100 126.522 89.4645 151.957 70.7109 170.711C51.9574 189.464 26.5215 200 0 200V160C19.8912 160 38.968 153.679 53.0332 142.427C67.0984 131.175 75 115.913 75 100C75 84.087 67.0984 68.8254 53.0332 57.5732C38.968 46.3211 19.8912 40 0 40V0ZM150 200H110V0H150V200ZM260 40C240.109 40 221.032 46.3211 206.967 57.5732C192.902 68.8254 185 84.087 185 100C185 115.913 192.902 131.175 206.967 142.427C221.032 153.679 240.109 160 260 160V200C233.478 200 208.043 189.465 189.289 170.711C170.536 151.957 160 126.522 160 100C160 73.4784 170.535 48.0427 189.289 29.2891C208.043 10.5355 233.478 3.16267e-07 260 0V40ZM319 120L197.876 114.624C195.965 109.859 195 104.923 195 100C195 94.8251 196.066 89.6361 198.177 84.6465L319 80V120Z" fill="#00FFA3"/>
</svg>
