<svg width="378" height="200" viewBox="0 0 378 200" fill="none" xmlns="http://www.w3.org/2000/svg">
<path d="M59 0C85.5216 3.16267e-07 110.957 10.5355 129.711 29.2891C148.465 48.0427 159 73.4784 159 100C159 126.522 148.464 151.957 129.711 170.711C110.957 189.464 85.5215 200 59 200V160C78.8912 160 97.968 153.679 112.033 142.427C126.098 131.175 134 115.913 134 100C134 84.087 126.098 68.8254 112.033 57.5732C97.968 46.3211 78.8912 40 59 40V0ZM209 200H169V0H209V200ZM319 40C299.109 40 280.032 46.3211 265.967 57.5732C251.902 68.8254 244 84.087 244 100C244 115.913 251.902 131.175 265.967 142.427C280.032 153.679 299.109 160 319 160V200C292.478 200 267.043 189.465 248.289 170.711C229.536 151.957 219 126.522 219 100C219 73.4784 229.535 48.0427 248.289 29.2891C267.043 10.5355 292.478 3.16267e-07 319 0V40ZM120.823 84.6465C122.934 89.6361 124 94.8251 124 100C124 104.923 123.035 109.859 121.124 114.624L0 120V80L120.823 84.6465ZM378 120L256.876 114.624C254.965 109.859 254 104.923 254 100C254 94.8251 255.066 89.6361 257.177 84.6465L378 80V120Z" fill="#00FFA3"/>
</svg>
